HIERARCHY
ROOT hip
{
	OFFSET 0.000000 0.000000 0.000000 
	CHANNELS 6 Xposition Yposition Zposition Xrotation Zrotation Yrotation
	JOINT abdomen
	{
		OFFSET 0.000000 3.402643 0.000000 
		CHANNELS 3 Xrotation Zrotation Yrotation
		JOINT chest
		{
			OFFSET 0.000000 8.438565 -0.680529 
			CHANNELS 3 Xrotation Zrotation Yrotation
			JOINT neck
			{
				OFFSET 0.000000 10.207942 -0.272212 
				CHANNELS 3 Xrotation Zrotation Yrotation
				JOINT head
				{
					OFFSET 0.000000 3.130431 0.000000 
					CHANNELS 3 Xrotation Zrotation Yrotation
					End Site
					{
						OFFSET 0.000000 3.130435 0.000000 
					}
				}
			}
			JOINT lCollar
			{
				OFFSET 3.470700 6.669187 -0.816635 
				CHANNELS 3 Yrotation Zrotation Xrotation
				JOINT lShldr
				{
					OFFSET 3.198488 0.000000 0.000000 
					CHANNELS 3 Zrotation Yrotation Xrotation
					JOINT lForeArm
					{
						OFFSET 10.139888 0.000000 0.000000 
						CHANNELS 3 Yrotation Zrotation Xrotation
						JOINT lHand
						{
							OFFSET 8.370511 0.000000 0.000000 
							CHANNELS 3 Zrotation Yrotation Xrotation
							End Site
							{
								OFFSET 4.083176 0.000000 0.000000 
							}
						}
					}
				}
			}
			JOINT rCollar
			{
				OFFSET -3.470700 6.669187 -0.816635 
				CHANNELS 3 Yrotation Zrotation Xrotation
				JOINT rShldr
				{
					OFFSET -3.198488 0.000000 0.000000 
					CHANNELS 3 Zrotation Yrotation Xrotation
					JOINT rForeArm
					{
						OFFSET -10.139888 0.000000 0.000000 
						CHANNELS 3 Yrotation Zrotation Xrotation
						JOINT rHand
						{
							OFFSET -8.370511 0.000000 0.000000 
							CHANNELS 3 Zrotation Yrotation Xrotation
							End Site
							{
								OFFSET -4.083176 0.000000 0.000000 
							}
						}
					}
				}
			}
		}
	}
	JOINT lThigh
	{
		OFFSET 5.308129 -1.633274 1.361059 
		CHANNELS 3 Xrotation Zrotation Yrotation
		JOINT lShin
		{
			OFFSET -2.041588 -20.007561 0.000000 
			CHANNELS 3 Xrotation Zrotation Yrotation
			JOINT lFoot
			{
				OFFSET 0.000000 -19.190928 -1.224953 
				CHANNELS 3 Xrotation Yrotation Zrotation
				End Site
				{
					OFFSET 0.000000 -2.449906 4.627600 
				}
			}
		}
	}
	JOINT rThigh
	{
		OFFSET -5.308129 -1.633274 1.361059 
		CHANNELS 3 Xrotation Zrotation Yrotation
		JOINT rShin
		{
			OFFSET 2.041588 -20.007561 0.000000 
			CHANNELS 3 Xrotation Zrotation Yrotation
			JOINT rFoot
			{
				OFFSET 0.000000 -19.190928 -1.224953 
				CHANNELS 3 Xrotation Yrotation Zrotation
				End Site
				{
					OFFSET 0.000000 -2.449906 4.627600 
				}
			}
		}
	}
}
MOTION
Frames: 13
Frame Time: 0.033333
-13.933918 49.167469 58.126801 176.860748 -178.796219 6.231756 0.000000 0.000000 0.000000 0.051461 1.245199 2.069942 6.897733 0.722649 0.254009 2.807270 0.819586 -2.412282 -2.591123 -2.952760 0.508124 -67.819344 13.514399 15.750640 -36.533447 -5.000440 16.755156 9.994741 6.038599 -3.300430 9.743682 19.381212 -0.756381 44.465611 -13.144190 15.066648 48.600739 2.022896 13.668323 -18.707949 -13.324977 -2.006032 -22.670891 2.303567 1.084852 10.521925 -3.392381 18.950214 10.002298 -0.224596 -3.358798 1.512573 -1.425138 -4.145876 14.806397 3.111602 -7.311463 -19.521070 0.052054 -0.315687 
-14.081304 48.903740 56.575779 177.016769 -178.600876 5.773096 0.000000 0.000000 0.000000 0.327485 0.722628 2.560652 7.078492 0.888634 0.527432 2.533747 0.614733 -2.314529 -2.488183 -2.405898 0.752213 -69.277565 14.194813 14.130990 -35.912739 -5.006425 17.270346 9.660047 4.906972 -3.392900 10.208660 19.092604 -0.459910 44.270020 -11.365514 15.679953 48.927704 1.950659 13.484591 -19.273542 -13.222489 -1.970716 -19.794373 2.156770 -0.400378 -2.918525 -2.548955 21.369392 12.459881 -0.364996 -3.995758 4.135340 -1.579842 -4.454344 14.172606 2.855543 -6.601981 -21.269503 -0.042386 0.086579 
-14.229215 48.651306 54.947575 177.057114 -178.755829 5.538345 0.000000 0.000000 0.000000 0.513307 0.539739 2.597527 6.971719 0.664004 0.761781 2.612934 0.878266 -2.187692 -2.307372 -2.898656 0.918505 -69.552078 14.779544 12.761019 -35.524166 -5.007768 16.556721 9.174416 4.127037 -3.450755 10.322360 19.304960 -0.298508 43.528137 -9.265222 16.351311 49.120518 2.058278 13.139107 -19.438087 -12.998048 -1.987163 -21.754353 2.489471 -1.035836 -3.734681 -2.069758 20.667212 11.241817 -0.417961 -4.683851 7.854139 -1.248796 -4.408808 11.185470 2.553485 -6.244243 -21.971857 -0.069674 0.441692 
-14.376162 48.430836 53.223713 177.044876 -179.299835 5.263993 0.000000 0.000000 0.000000 0.621144 0.558643 2.693833 6.720355 0.673732 0.966959 2.563207 0.702692 -2.011807 -1.736381 -3.458744 1.007674 -69.258156 14.877785 12.092929 -34.767567 -5.002007 15.575700 8.967214 3.718869 -3.470275 10.630372 19.766024 -0.276941 43.018066 -7.821377 16.911245 49.623135 2.005658 12.665888 -19.876118 -13.434549 -1.871596 -22.479296 3.475993 -0.714049 -3.608935 -2.567228 17.633852 10.533592 -0.346326 -4.586462 11.791726 -0.400777 -3.784529 7.466950 2.087344 -6.759657 -21.548426 -0.124416 0.993023 
-14.615266 48.303654 51.253593 178.089096 -179.183121 5.244581 0.000000 0.000000 0.000000 1.335375 0.152889 2.967535 6.930627 0.419867 0.927781 2.402304 0.761154 -2.207226 -1.286928 -3.817943 1.654079 -68.995560 14.274228 12.210723 -33.405304 -5.002380 15.030578 9.295953 3.624532 -3.478307 10.802759 19.774647 0.425292 43.680134 -7.065530 16.461140 49.700607 1.833381 12.019165 -20.331411 -13.209596 -1.880363 -21.251173 3.533651 -0.580086 -3.299540 -2.509382 16.244761 13.156857 -0.549201 -5.731922 13.970385 -0.459026 -4.044022 10.228028 1.489729 -5.191115 -21.455099 -0.251592 1.545013 
-14.959544 48.246880 49.139942 179.129807 -178.300186 5.940093 0.000000 0.000000 0.000000 1.949240 -0.750206 2.856573 7.047785 -0.390614 0.439443 2.376055 1.238988 -2.568814 -1.606861 -5.298954 2.176684 -67.850151 14.175264 12.558703 -32.759705 -5.007167 14.571688 9.098669 4.091930 -3.451515 10.385479 18.922497 1.195050 45.516823 -6.850513 15.630944 49.392323 1.775919 11.916883 -21.087049 -12.806657 -1.877625 -19.547091 2.284691 -0.573737 -1.302486 -2.300762 18.509411 14.480494 -0.691057 -5.785315 15.102278 -1.298895 -5.056659 15.465491 0.828249 -3.971936 -20.692074 -0.398273 2.273234 
-15.377920 48.339218 46.985310 179.780960 -177.341873 6.588958 0.000000 0.000000 0.000000 2.093619 -1.623757 2.850706 7.199756 -1.328123 -0.107619 2.681294 1.842889 -3.165565 -1.814303 -7.126303 2.233527 -66.414513 14.007555 13.264296 -31.598494 -5.004353 14.340904 7.618826 5.626532 -3.378926 10.034865 17.408463 1.558534 48.522568 -7.310458 14.459908 48.137333 1.801898 12.604284 -21.130919 -11.817305 -2.050479 -18.641674 0.937320 -0.524539 2.546502 -2.443412 18.345354 13.517172 -0.544224 -5.392644 13.959896 -2.519208 -6.277181 23.851154 0.193754 -2.413917 -16.961983 -0.378289 2.921115 
-15.834882 48.573345 44.952114 179.532745 -176.610184 7.365986 0.000000 0.000000 0.000000 1.503552 -2.433674 2.584184 7.133848 -2.079934 -0.674448 3.387019 2.436911 -3.479643 -2.223347 -8.328371 1.647674 -65.273094 14.069045 14.279235 -31.256855 -5.001552 13.950387 7.251672 7.160654 -3.314222 10.078756 16.673513 1.090333 50.454288 -8.684117 14.477825 47.374695 2.009777 12.280656 -21.220438 -11.650122 -2.080435 -19.434563 -0.644283 -1.039819 8.605198 -2.026072 17.892467 10.592597 -0.379568 -4.695477 9.282290 -4.373554 -8.335741 35.594109 0.057103 -1.535000 -6.536270 -0.350302 4.508841 
-16.232584 48.701122 43.110920 -0.680441 -3.373540 -171.812271 0.000000 0.000000 0.000000 1.140801 -2.641892 2.456713 6.991827 -2.255339 -1.231437 3.852670 2.757118 -3.949664 -2.695283 -7.864855 1.291158 -65.442307 13.466952 15.370258 -31.661257 -5.001132 14.206083 6.512992 7.688130 -3.317131 10.093029 16.384928 0.779833 51.973534 -10.284871 14.656487 47.418056 2.279561 12.383061 -20.186174 -11.879439 -2.112522 -18.845333 -1.445260 -1.188583 11.413789 -1.747104 17.549643 7.577287 -0.162460 -3.411720 4.098606 -6.100793 -10.431782 45.091759 0.202583 -4.169028 9.549253 0.749071 8.635097 
-16.579588 48.748238 41.415455 -0.759726 -3.822912 -171.309143 0.000000 0.000000 0.000000 1.157778 -3.133513 2.444276 6.913023 -2.567203 -1.720524 3.945098 2.736457 -4.292003 -2.834748 -7.576459 1.318660 -65.455002 12.100523 16.649229 -33.178791 -5.006007 15.479259 3.685238 8.241726 -3.414104 9.969010 15.452114 0.926878 53.353504 -11.009244 15.792830 47.393616 2.652507 12.626321 -18.373825 -12.176278 -2.204984 -17.844257 -2.411449 -1.261351 13.660748 -1.581600 17.618073 5.127347 -0.037924 -2.148614 -0.967296 -8.075788 -12.218074 53.129154 -0.218048 -9.264244 18.725218 1.484954 8.710489 
-16.885012 48.929558 39.832191 -0.880632 -4.095939 -171.560440 0.000000 0.000000 0.000000 1.283674 -3.473035 2.692117 6.888834 -2.752681 -1.711233 3.723910 2.492613 -4.408191 -2.481738 -8.286050 1.419710 -64.159775 9.617412 18.278660 -34.052124 -5.007312 16.865419 3.222024 8.612453 -3.425995 10.321154 15.560863 1.065855 52.918915 -11.028106 17.922417 46.999153 3.157090 13.407286 -16.382805 -12.246498 -2.355869 -15.950464 -2.928625 -1.215914 13.918615 -1.520200 17.688509 2.428623 0.045210 -0.502003 -6.180671 -9.869917 -13.451888 60.292137 -0.800863 -13.147964 17.014400 1.129779 7.507990 
-17.094881 49.163170 38.308449 179.486191 -176.499527 8.042082 0.000000 0.000000 0.000000 1.784338 -3.021223 2.698519 7.113981 -2.469895 -1.466429 3.489522 2.327598 -4.241520 -2.192327 -8.114026 1.912612 -63.720646 6.028584 19.888390 -33.455650 -5.006500 17.951328 5.315126 7.958200 -3.343792 10.405366 16.521112 1.399444 52.050190 -10.659044 19.511992 46.843914 3.672808 14.134444 -15.621595 -12.209168 -2.428978 -13.931023 -2.324104 -0.712919 14.598025 -1.415347 16.903015 0.018924 0.131545 -0.190339 -10.583969 -10.123827 -14.089206 63.293770 -0.754111 -16.891066 12.590050 0.581231 4.740964 
-17.308661 49.319393 36.821983 -0.540039 -2.917344 -171.561401 0.000000 0.000000 0.000000 1.979838 -2.549483 2.085052 7.152311 -2.206147 -1.622523 3.768161 2.523089 -4.017513 -2.665320 -7.903664 2.078808 -63.317505 2.700367 21.161327 -33.673862 -5.001477 18.770628 5.703708 8.103499 -3.334658 9.745842 16.929703 1.486958 51.867691 -10.068985 20.645540 46.377083 4.123524 14.148204 -17.902063 -11.411416 -2.353337 -12.487626 -1.943158 -0.651025 15.504613 -1.170827 15.889482 -2.485922 0.093334 -0.920608 -14.576185 -10.200590 -14.216302 62.952843 0.105111 -18.294777 8.073261 0.199736 2.114797 
